<svg width="76" height="76" viewBox="0 0 76 76" fill="none" xmlns="http://www.w3.org/2000/svg">
<circle cx="38" cy="38" r="37.5" transform="matrix(-1 0 0 1 76 0)" fill="url(#paint0_linear_24_38)" stroke="#70A0BB"/>
<path d="M8 29L16 67H38H60L68 29L49 52L38 11L27 52L8 29Z" fill="#70A0BB"/>
<path d="M68 21L72 25L68 29L64 25L68 21Z" fill="#70A0BB"/>
<path d="M8 21L12 25L8 29L4 25L8 21Z" fill="#70A0BB"/>
<path d="M38 3L42 7L38 11L34 6.99999L38 3Z" fill="#70A0BB"/>
<path d="M38 41.9758L42 57.5L38 61.5L34 57.5L38 41.9758Z" fill="url(#paint1_diamond_24_38)"/>
<path d="M58.9671 53L58.4671 61.5L55 65L53.9671 60.5L58.9671 53Z" fill="url(#paint2_diamond_24_38)"/>
<path d="M17.0329 53.0066L17.5329 61.5066L21 65.0066L22.0329 60.5066L17.0329 53.0066Z" fill="url(#paint3_diamond_24_38)"/>
<defs>
<linearGradient id="paint0_linear_24_38" x1="38" y1="0" x2="38" y2="76" gradientUnits="userSpaceOnUse">
<stop stop-color="#AEC6D3"/>
<stop offset="1" stop-color="white" stop-opacity="0"/>
</linearGradient>
<radialGradient id="paint1_diamond_24_38" cx="0" cy="0" r="1" gradientUnits="userSpaceOnUse" gradientTransform="translate(38 55.5) rotate(90) scale(20 14.6169)">
<stop stop-color="#00A5FF"/>
<stop offset="1" stop-color="#003049"/>
</radialGradient>
<radialGradient id="paint2_diamond_24_38" cx="0" cy="0" r="1" gradientUnits="userSpaceOnUse" gradientTransform="translate(57.4541 60.5) rotate(108.435) scale(11.068 20.0149)">
<stop offset="0.108357" stop-color="#00FF47"/>
<stop offset="1" stop-color="#460018" stop-opacity="0"/>
</radialGradient>
<radialGradient id="paint3_diamond_24_38" cx="0" cy="0" r="1" gradientUnits="userSpaceOnUse" gradientTransform="translate(19.5 60.5) rotate(71.5651) scale(11.068 20.0149)">
<stop offset="0.108357" stop-color="#FF0059"/>
<stop offset="1" stop-color="#460018" stop-opacity="0"/>
</radialGradient>
</defs>
</svg>
