<svg width="69" height="68" viewBox="0 0 69 68" fill="none" xmlns="http://www.w3.org/2000/svg">
<path d="M4.00017 29L12.0002 67H34.0002H56.0002L64.0002 29L45.0002 52L37.5002 23L36.5002 20L31.5002 21.5L23.0002 52L4.00017 29Z" stroke="black" stroke-width="2"/>
<path d="M37.3378 7.77657L46.6312 15.5473L34.8164 18.2234L25.523 10.4527L37.3378 7.77657Z" fill="black"/>
<path d="M45.337 15.7676L46.6312 15.5473L46.6312 24.5L45.337 24.5L45.337 15.7676Z" fill="black"/>
<path d="M36.2172 12.4196L45.5986 14.6839L46.6312 15.5473L45.3184 15.8447L35.937 13.5804L36.2172 12.4196Z" fill="white"/>
<path d="M41.4336 21.6569C41.2789 22.298 37.2593 23.7203 33.6972 22.8606C30.1351 22.0009 27.2068 18.9016 27.3615 18.2605C27.5162 17.6194 30.4153 20.8401 33.9773 21.6998C37.5394 22.5596 41.5884 21.0158 41.4336 21.6569Z" fill="black"/>
<path d="M28.342 14.1978L34.5376 19.3783L42.4142 17.5943L41.4336 21.6569L38.2218 22.1101L33.6972 22.8606L27.3615 18.2605L28.342 14.1978Z" fill="black"/>
<path d="M60.7519 26L64.0448 22.7071L67.3377 26L64.0448 29.2929L60.7519 26Z" stroke="black"/>
<path d="M0.729447 26L4.02234 22.7071L7.31523 26L4.02234 29.2929L0.729447 26Z" stroke="black"/>
<path d="M30.6883 59.3724L34.1329 46.0036L37.5775 59.3724L34.1329 62.817L30.6883 59.3724Z" stroke="black"/>
<path d="M51.6237 59.5981L55.4808 53.8124L55.1002 60.2821L52.4052 63.0028L51.6237 59.5981Z" stroke="black"/>
<path d="M16.4601 59.5981L12.603 53.8124L12.9836 60.2821L15.6786 63.0028L16.4601 59.5981Z" stroke="black"/>
</svg>
