<svg width="224" height="248" viewBox="0 0 224 248" fill="none" xmlns="http://www.w3.org/2000/svg">
<path d="M142.942 79.0797L141.28 101.011H81.0833H78.4538L78.5865 103.637L79.9476 130.568L80.0676 132.942H82.4444H139.61L137.861 158.883L112.341 167.521L86.9146 158.899L86.3035 143.807L86.2064 141.408H83.8056H56.5833H53.9416L54.0871 144.046L56.1288 181.052L56.2231 182.761L57.8512 183.291L111.566 200.777L112.34 201.029L113.114 200.777L166.829 183.291L168.446 182.765L168.551 181.068L173.314 103.669L173.315 103.665L176.717 49.8546L176.885 47.1969H174.222H49.7778H47.0807L47.285 49.8862L49.3266 76.769L49.5021 79.0797H51.8195H142.942ZM27.1876 221.256L2.79427 2.5H221.206L209.071 111.323L196.813 221.255L111.904 245.401L27.1876 221.256Z" fill="#EFCD99" stroke="#FEFFDB" stroke-width="5"/>
</svg>
