<svg width="224" height="248" viewBox="0 0 224 248" fill="none" xmlns="http://www.w3.org/2000/svg">
<path d="M172.035 77.9172H174.328L174.525 75.6329L176.762 49.8157L176.997 47.1H174.271H49.875H47.1543L47.3839 49.811L54.0437 128.425L54.2376 130.714H56.5347H140.142L137.57 160.324L112.286 166.001L86.4817 160.317L85.5675 149.51L85.3738 147.22H83.0764H58.3819H55.6601L55.8909 149.932L58.6618 182.482L58.8035 184.148L60.3965 184.653L110.672 200.61L111.074 200.771L111.905 201.102L112.757 200.831L163.701 184.653L165.293 184.147L165.435 182.483L172.241 102.658L172.472 99.9453H169.75H81.3393L79.4772 77.9172H172.035ZM2.79427 2.5H221.206L196.812 221.255L112 245.401L27.1875 221.255L2.79427 2.5Z" fill="#99C6EF" stroke="#DBF2FF" stroke-width="5"/>
</svg>
