<svg xmlns="http://www.w3.org/2000/svg" aria-hidden="true" style="position:absolute;width:0;height:0;overflow:hidden">
<defs>

<symbol id="icon-cross" viewBox="0 0 19 19">
<path d="M18.6667 1.88L16.7867 0L9.33333 7.45334L1.88 0L0 1.88L7.45334 9.33333L0 16.7867L1.88 18.6667L9.33333 11.2133L16.7867 18.6667L18.6667 16.7867L11.2133 9.33333L18.6667 1.88Z"></path>
</symbol>

<symbol id="icon-menu" viewBox="0 0 24 16">
<path d="M0 2.66667V0H24V2.66667H0ZM0 9.33333H24V6.66667H0V9.33333ZM0 16H24V13.3333H0V16Z"></path>
</symbol>

<symbol id="html-icon" viewBox="0 0 224 248">
<path d="M172.035 77.9172H174.328L174.525 75.6329L176.762 49.8157L176.997 47.1H174.271H49.875H47.1543L47.3839 49.811L54.0437 128.425L54.2376 130.714H56.5347H140.142L137.57 160.324L112.286 166.001L86.4817 160.317L85.5675 149.51L85.3738 147.22H83.0764H58.3819H55.6601L55.8909 149.932L58.6618 182.482L58.8035 184.148L60.3965 184.653L110.672 200.61L111.074 200.771L111.905 201.102L112.757 200.831L163.701 184.653L165.293 184.147L165.435 182.483L172.241 102.658L172.472 99.9453H169.75H81.3393L79.4772 77.9172H172.035ZM2.79427 2.5H221.206L196.812 221.255L112 245.401L27.1875 221.255L2.79427 2.5Z" fill="#99C6EF" stroke="#DBF2FF" stroke-width="5"/>
</symbol>

<symbol id="css-icon" viewBox="0 0 224 248">
<path d="M142.942 79.0797L141.28 101.011H81.0833H78.4538L78.5865 103.637L79.9476 130.568L80.0676 132.942H82.4444H139.61L137.861 158.883L112.341 167.521L86.9146 158.899L86.3035 143.807L86.2064 141.408H83.8056H56.5833H53.9416L54.0871 144.046L56.1288 181.052L56.2231 182.761L57.8512 183.291L111.566 200.777L112.34 201.029L113.114 200.777L166.829 183.291L168.446 182.765L168.551 181.068L173.314 103.669L173.315 103.665L176.717 49.8546L176.885 47.1969H174.222H49.7778H47.0807L47.285 49.8862L49.3266 76.769L49.5021 79.0797H51.8195H142.942ZM27.1876 221.256L2.79427 2.5H221.206L209.071 111.323L196.813 221.255L111.904 245.401L27.1876 221.256Z" fill="#EFCD99" stroke="#FEFFDB" stroke-width="5"></path>
</symbol>

<symbol id="shadow" viewBox="-15 -15 252.4 139">
  <path d="M208.2 105c.6-.1 1.1-.6 1.1-1.2V51.3c0-.7-.5-1.2-1.2-1.2h-64.4V3.6c0-2-1.6-3.6-3.6-3.6H26.4c-2 0-3.6 1.6-3.6 3.6v70.6c0 2 1.6 3.6 3.6 3.6h54.7v.5c0 9.5-22.1 8.3-23 8.5H58c-.1 0-.1.1-.1.2v1c0 .1 0 .1.1.2h50.4c.1 0 .1-.1.1-.2v-1c0-.1 0-.1-.1-.2h-.1c-.9-.2-23 .7-23-8.5v-.5H124v26.1c0 .6.5 1.1 1.1 1.2H111v1.9s1.7 2.1 6.7 2.1H215.8c5 0 6.7-2.1 6.7-2.1v-2h-14.3zM83.3.8c.6 0 1 .5 1 1 0 .6-.5 1-1 1-.6 0-1-.5-1-1 0-.6.5-1 1-1zM124 51.3v8.6H30.9v-9H124v.4zm-95.1-2.4v13H124v1.9H26.5V3.6h113.6v46.5h-1.8v-1.2H28.9zm177 52.3h-78.5V53.1h78.5v48.1zm-58.5-34.7h-18v22.3h18V66.5zm-2 20.3h-14V68.5h14v18.3zM1.7 102.6h4.5V75.9H1.7v26.7zm2-24.7h.5v22.7h-.5V77.9zM7 82.7h10v-6.8H7v6.8zm2-4.8h6v2.8H9v-2.8zm-2 24.7h5V97H7v5.6zM9 99h1v1.7H9V99zm-2-2.9h5V83.5H7v12.6zm2-10.6h1v8.6H9v-8.6zm3.7 17.1H17V83.5h-4.3v19.1zm2-17.1h.3v15.1h-.3V85.5zm166.9 4.3h-52.2v9.7h52.2v-9.7zm-2 7.7h-48.2v-5.7h48.2v5.7zM28.9 47.1h30.6V5.5H28.9v41.6zm2-39.6h26.6v37.6H30.9V7.5zm31 39.6h31.2V35.7H61.9v11.4zm2-9.4h27.2v7.4H63.9v-7.4zm31.5 9.4h14.7V35.7H95.4v11.4zm2-9.4h10.7v7.4H97.4v-7.4zm41-18.6h-25.8v28h25.8v-28zm-2 26h-21.8v-24h21.8v24zm12 43.7h33.2v-12h-33.2v12zm2-10h29.2v8h-29.2v-8zm-2-3h33.2v-9.3h-33.2v9.3zm2-7.3h29.2v5.3h-29.2v-5.3zM16 69.3H2.7c-1.5 0-2.7 1.2-2.7 2.8v34.2c0 1.5 1.2 2.7 2.7 2.7H16c1.5 0 2.7-1.2 2.7-2.7V72.1c0-1.5-1.2-2.8-2.7-2.8zm1.6 34.2c0 .1-.1.2-.2.2H1.3c-.1 0-.2-.1-.2-.2V75c0-.1.1-.2.2-.2h16.2c.1 0 .2.1.2.2v28.5zm92.5-84.4H61.9v14.8h48.2V19.1zm-2 12.8H63.9V21.1h44.2v10.8zm95.8 23h-74.5v10.6h74.5V54.9zm-2 8.6h-70.5v-6.6h70.5v6.6zm-63.5-58H61.9v11.8h76.5V5.5zm-2 9.8H63.9V7.5h72.5v7.8zm46.2 84.2h21.3v-33h-21.3v33zm2-31h17.3v29h-17.3v-29z" fill="url(#a)" filter="url(#shadow)"></path>
</symbol>

<!-- <svg xmlns="http://www.w3.org/2000/svg" width="24" height="24" viewBox="0 0 24 24" fill="none">
<path d="M4.70703 3.29297L3.29297 4.70703L10.5859 12L3.29297 19.293L4.70703 20.707L12 13.4141L19.293 20.707L20.707 19.293L13.4141 12L20.707 4.70703L19.293 3.29297L12 10.5859L4.70703 3.29297Z" fill="black"/>
</svg> -->
<symbol id="icon-cross2" viewBox="0 0 24 24">
<path d="M4.70703 3.29297L3.29297 4.70703L10.5859 12L3.29297 19.293L4.70703 20.707L12 13.4141L19.293 20.707L20.707 19.293L13.4141 12L20.707 4.70703L19.293 3.29297L12 10.5859L4.70703 3.29297Z" fill="black"></path>
</symbol>

<symbol id="icon-cross3" viewBox="0 0 19 19">
<path d="M18.6667 1.88L16.7867 0L9.33333 7.45334L1.88 0L0 1.88L7.45334 9.33333L0 16.7867L1.88 18.6667L9.33333 11.2133L16.7867 18.6667L18.6667 16.7867L11.2133 9.33333L18.6667 1.88Z"></path>
</symbol>

</defs>
</svg>
